name C:\Users\u0101727\Documents\MyRepositories\upper-imu-dc\Results\main_tracking\Case_61\kinematics.mot
datacolumns 10
datarows 33
range 4.83000000 5.15000000
endheader 
time	clav_prot	clav_elev	scapula_abduction	scapula_elevation	scapula_upward_rot	scapula_winging	plane_elv	shoulder_elv	axial_rot	
          4.83000000	        -23.93319980	         10.69700623	          4.71007854	          0.51295078	         46.32104688	         -5.37955146	         67.89355702	         56.16776925	        -27.47897700	
          4.84000000	        -23.80796906	         10.73776220	          4.48092947	          0.60281744	         45.80855907	         -5.29149165	         67.99794693	         55.65679947	        -27.54124334	
          4.85000000	        -23.68802785	         10.77928003	          4.24739602	          0.69395406	         45.30206450	         -5.20249586	         68.09665496	         55.14880829	        -27.59536054	
          4.86000000	        -23.57228913	         10.82074351	          4.01167450	          0.78581522	         44.80145160	         -5.11246561	         68.18974704	         54.64379876	        -27.64315804	
          4.87000000	        -23.45949656	         10.86123426	          3.77626750	          0.87780064	         44.30654035	         -5.02130206	         68.27734084	         54.14182924	        -27.68649389	
          4.88000000	        -23.34822945	         10.89975483	          3.54398718	          0.96926915	         43.81710363	         -4.92891330	         68.35962351	         53.64300872	        -27.72718477	
          4.89000000	        -23.23690830	         10.93525326	          3.31795777	          1.05955286	         43.33289049	         -4.83522231	         68.43686633	         53.14749027	        -27.76693585	
          4.90000000	        -23.12379949	         10.96664665	          3.10161997	          1.14797017	         42.85365074	         -4.74017573	         68.50943397	         52.65546450	        -27.80727567	
          4.91000000	        -23.00701482	         10.99283848	          2.89874459	          1.23383444	         42.37915777	         -4.64375258	         68.57778443	         52.16715511	        -27.84950139	
          4.92000000	        -22.88449705	         11.01272876	          2.71347130	          1.31645831	         41.90922813	         -4.54597310	         68.64245541	         51.68281632	        -27.89464017	
          4.93000000	        -22.75397671	         11.02520870	          2.55039992	          1.39514924	         41.44373473	         -4.44690696	         68.70403537	         51.20273211	        -27.94342667	
          4.94000000	        -22.61285514	         11.02915044	          2.41481615	          1.46920581	         40.98261604	         -4.34668209	         68.76311897	         50.72721640	        -27.99629048	
          4.95000000	        -22.45794300	         11.02331103	          2.31321680	          1.53786149	         40.52588301	         -4.24549430	         68.82024901	         50.25659568	        -28.05337284	
          4.96000000	        -22.28449176	         11.00641776	          2.25504938	          1.60039919	         40.07360691	         -4.14362016	         68.87591428	         49.79127269	        -28.11446822	
          4.97000000	        -21.38750800	         10.92160989	          3.56604744	          1.65623668	         39.62618805	         -4.04186918	         68.92966554	         49.33156971	        -28.17911634	
          4.98000000	        -21.99150121	         10.94706097	          2.06457764	          1.70580012	         39.18277474	         -3.94052922	         68.97917854	         48.87911398	        -28.24474581	
          4.99000000	        -21.86819705	         10.90291655	          1.93815094	          1.74792097	         38.74211174	         -3.83853637	         69.02535426	         48.43589636	        -28.30978859	
          5.00000000	        -21.59377981	         10.83988257	          2.10068312	          1.78607202	         38.30276404	         -3.73622640	         69.06801086	         48.00472339	        -28.37432094	
          5.01000000	        -21.71823843	         10.80106917	          1.51850567	          1.81995466	         37.86383755	         -3.63171159	         69.10273690	         47.58833205	        -28.43739095	
          5.02000000	        -21.74070665	         10.75129036	          1.12974109	          1.85306345	         37.42413654	         -3.52592114	         69.12801031	         47.18987770	        -28.49838870	
          5.03000000	        -21.74978564	         10.69811411	          0.76741804	          1.88584204	         36.98331220	         -3.41839936	         69.14234932	         46.81073665	        -28.55764751	
          5.04000000	        -21.77373640	         10.64371028	          0.37790661	          1.91836611	         36.54055091	         -3.30893171	         69.14328215	         46.45257806	        -28.61531450	
          5.05000000	        -21.78387977	         10.58595723	          0.01448698	          1.95086340	         36.09524201	         -3.19739310	         69.12865229	         46.11590225	        -28.67109354	
          5.06000000	        -21.79726764	         10.52682747	         -0.35523706	          1.98382659	         35.64714101	         -3.08371791	         69.09797667	         45.80017932	        -28.72385541	
          5.07000000	        -21.80920504	         10.46621655	         -0.72255486	          2.01747087	         35.19621046	         -2.96789812	         69.05261880	         45.50534868	        -28.77382960	
          5.08000000	        -21.82049644	         10.40340468	         -1.08882996	          2.05130196	         34.74214208	         -2.84984837	         68.99050055	         45.23024656	        -28.81884258	
          5.09000000	        -21.83148109	         10.33895981	         -1.45383607	          2.08549732	         34.28620345	         -2.72990499	         68.90992578	         44.97280446	        -28.85604024	
          5.10000000	        -21.84232268	         10.27387028	         -1.81766074	          2.12063209	         33.82913209	         -2.60827889	         68.81115906	         44.72966786	        -28.88386093	
          5.11000000	        -21.85419428	         10.20984929	         -2.18397231	          2.15805904	         33.36995075	         -2.48472521	         68.69722370	         44.49520738	        -28.90197806	
          5.12000000	        -21.86561281	         10.14944979	         -2.55320429	          2.20020165	         32.90611998	         -2.35855117	         68.57358648	         44.26230329	        -28.91121934	
          5.13000000	        -21.87571424	         10.08885737	         -2.92493625	          2.24508338	         32.43400897	         -2.22872437	         68.43518285	         44.02662870	        -28.91035047	
          5.14000000	        -21.88580736	         10.02856354	         -3.29964433	          2.29255649	         31.95616125	         -2.09590656	         68.28842527	         43.78484489	        -28.89722144	
          5.15000000	        -21.89529024	          9.96906071	         -3.67343262	          2.34233466	         31.47625686	         -1.96110954	         68.13692231	         43.53551251	        -28.87016582	
